{
	"patcher" : 	{
		"fileversion" : 1,
		"rect" : [ 646.0, 92.0, 599.0, 329.0 ],
		"bglocked" : 0,
		"defrect" : [ 646.0, 92.0, 599.0, 329.0 ],
		"openrect" : [ 0.0, 0.0, 0.0, 0.0 ],
		"openinpresentation" : 0,
		"default_fontsize" : 12.0,
		"default_fontface" : 0,
		"default_fontname" : "Arial",
		"gridonopen" : 0,
		"gridsize" : [ 15.0, 15.0 ],
		"gridsnaponopen" : 0,
		"toolbarvisible" : 1,
		"boxanimatetime" : 200,
		"imprint" : 0,
		"metadata" : [  ],
		"boxes" : [ 			{
				"box" : 				{
					"maxclass" : "comment",
					"text" : "If non-zero, defaults to open",
					"numoutlets" : 0,
					"fontname" : "Arial",
					"id" : "obj-1",
					"fontsize" : 9.0,
					"patching_rect" : [ 395.0, 152.0, 135.0, 17.0 ],
					"numinlets" : 1
				}

			}
, 			{
				"box" : 				{
					"maxclass" : "comment",
					"text" : "Arguments:",
					"numoutlets" : 0,
					"fontname" : "Arial Black",
					"id" : "obj-2",
					"fontsize" : 14.0,
					"patching_rect" : [ 324.0, 111.0, 96.0, 26.0 ],
					"numinlets" : 1
				}

			}
, 			{
				"box" : 				{
					"maxclass" : "comment",
					"text" : "#1",
					"numoutlets" : 0,
					"fontname" : "Arial Black",
					"id" : "obj-3",
					"fontsize" : 12.0,
					"patching_rect" : [ 329.0, 147.0, 41.0, 23.0 ],
					"numinlets" : 1
				}

			}
, 			{
				"box" : 				{
					"maxclass" : "panel",
					"bgcolor" : [ 0.74902, 0.74902, 0.74902, 1.0 ],
					"numoutlets" : 0,
					"id" : "obj-4",
					"patching_rect" : [ 324.0, 134.0, 68.0, 40.0 ],
					"numinlets" : 1,
					"rounded" : 0
				}

			}
, 			{
				"box" : 				{
					"maxclass" : "panel",
					"bgcolor" : [ 0.839216, 0.839216, 0.839216, 1.0 ],
					"numoutlets" : 0,
					"id" : "obj-5",
					"patching_rect" : [ 324.0, 134.0, 239.0, 40.0 ],
					"numinlets" : 1,
					"rounded" : 0
				}

			}
, 			{
				"box" : 				{
					"maxclass" : "comment",
					"text" : "Input:",
					"numoutlets" : 0,
					"fontname" : "Arial Black",
					"id" : "obj-6",
					"fontsize" : 14.0,
					"patching_rect" : [ 324.0, 180.0, 53.0, 26.0 ],
					"numinlets" : 1
				}

			}
, 			{
				"box" : 				{
					"maxclass" : "comment",
					"text" : "peter.mcculloch@gmail.com",
					"numoutlets" : 0,
					"fontname" : "Arial",
					"id" : "obj-7",
					"fontsize" : 9.0,
					"patching_rect" : [ 429.0, 258.0, 133.0, 17.0 ],
					"numinlets" : 1
				}

			}
, 			{
				"box" : 				{
					"maxclass" : "comment",
					"text" : "any",
					"numoutlets" : 0,
					"fontname" : "Arial Black",
					"id" : "obj-8",
					"fontsize" : 12.0,
					"patching_rect" : [ 329.0, 216.0, 64.0, 23.0 ],
					"numinlets" : 1
				}

			}
, 			{
				"box" : 				{
					"maxclass" : "comment",
					"text" : "A oneshot gate. Works like \"onebang\". The \"stop\" message sets the gate to the second outlet.",
					"linecount" : 2,
					"numoutlets" : 0,
					"fontname" : "Arial",
					"id" : "obj-9",
					"fontsize" : 9.0,
					"patching_rect" : [ 329.0, 75.0, 230.0, 27.0 ],
					"numinlets" : 1
				}

			}
, 			{
				"box" : 				{
					"maxclass" : "comment",
					"text" : "PM.OneShot",
					"numoutlets" : 0,
					"fontname" : "Arial Black",
					"id" : "obj-10",
					"fontsize" : 18.0,
					"patching_rect" : [ 329.0, 34.0, 198.0, 32.0 ],
					"numinlets" : 1
				}

			}
, 			{
				"box" : 				{
					"maxclass" : "comment",
					"text" : "Value to be gated.",
					"numoutlets" : 0,
					"fontname" : "Arial",
					"id" : "obj-11",
					"fontsize" : 9.0,
					"patching_rect" : [ 395.0, 222.0, 104.0, 17.0 ],
					"numinlets" : 1
				}

			}
, 			{
				"box" : 				{
					"maxclass" : "panel",
					"bgcolor" : [ 0.74902, 0.74902, 0.74902, 1.0 ],
					"numoutlets" : 0,
					"id" : "obj-12",
					"patching_rect" : [ 324.0, 203.0, 68.0, 40.0 ],
					"numinlets" : 1,
					"rounded" : 0
				}

			}
, 			{
				"box" : 				{
					"maxclass" : "panel",
					"bgcolor" : [ 0.839216, 0.839216, 0.839216, 1.0 ],
					"numoutlets" : 0,
					"id" : "obj-13",
					"patching_rect" : [ 324.0, 203.0, 239.0, 40.0 ],
					"numinlets" : 1,
					"rounded" : 0
				}

			}
, 			{
				"box" : 				{
					"maxclass" : "panel",
					"bgcolor" : [ 0.839216, 0.839216, 0.839216, 1.0 ],
					"numoutlets" : 0,
					"id" : "obj-14",
					"patching_rect" : [ 323.0, 65.0, 239.0, 40.0 ],
					"numinlets" : 1,
					"rounded" : 0
				}

			}
, 			{
				"box" : 				{
					"maxclass" : "panel",
					"bgcolor" : [ 0.635294, 0.658824, 0.788235, 1.0 ],
					"numoutlets" : 0,
					"id" : "obj-15",
					"patching_rect" : [ 323.0, 30.0, 239.0, 35.0 ],
					"numinlets" : 1,
					"rounded" : 0
				}

			}
, 			{
				"box" : 				{
					"maxclass" : "newobj",
					"text" : "!- 2",
					"numoutlets" : 1,
					"fontname" : "Arial",
					"outlettype" : [ "int" ],
					"id" : "obj-16",
					"fontsize" : 9.0,
					"patching_rect" : [ 238.0, 88.0, 27.0, 17.0 ],
					"numinlets" : 2
				}

			}
, 			{
				"box" : 				{
					"maxclass" : "newobj",
					"text" : "t 2",
					"numoutlets" : 1,
					"fontname" : "Arial",
					"outlettype" : [ "int" ],
					"id" : "obj-17",
					"fontsize" : 9.0,
					"patching_rect" : [ 26.0, 126.0, 21.0, 17.0 ],
					"numinlets" : 1
				}

			}
, 			{
				"box" : 				{
					"maxclass" : "newobj",
					"text" : "sel stop",
					"numoutlets" : 2,
					"fontname" : "Arial",
					"outlettype" : [ "bang", "" ],
					"id" : "obj-18",
					"fontsize" : 9.0,
					"patching_rect" : [ 26.0, 94.0, 44.0, 17.0 ],
					"numinlets" : 1
				}

			}
, 			{
				"box" : 				{
					"maxclass" : "newobj",
					"text" : "t 1",
					"numoutlets" : 1,
					"fontname" : "Arial",
					"outlettype" : [ "int" ],
					"id" : "obj-19",
					"fontsize" : 9.0,
					"patching_rect" : [ 60.0, 126.0, 21.0, 17.0 ],
					"numinlets" : 1
				}

			}
, 			{
				"box" : 				{
					"maxclass" : "newobj",
					"text" : "!= 0",
					"numoutlets" : 1,
					"fontname" : "Arial",
					"outlettype" : [ "int" ],
					"id" : "obj-20",
					"fontsize" : 9.0,
					"patching_rect" : [ 238.0, 65.0, 27.0, 17.0 ],
					"numinlets" : 2
				}

			}
, 			{
				"box" : 				{
					"maxclass" : "newobj",
					"text" : "loadmess #1",
					"numoutlets" : 1,
					"fontname" : "Arial",
					"outlettype" : [ "" ],
					"id" : "obj-21",
					"fontsize" : 9.0,
					"patching_rect" : [ 238.0, 43.0, 65.0, 17.0 ],
					"numinlets" : 1
				}

			}
, 			{
				"box" : 				{
					"maxclass" : "outlet",
					"numoutlets" : 0,
					"id" : "obj-22",
					"patching_rect" : [ 170.0, 182.0, 15.0, 15.0 ],
					"numinlets" : 1,
					"comment" : "Failed Messages"
				}

			}
, 			{
				"box" : 				{
					"maxclass" : "outlet",
					"numoutlets" : 0,
					"id" : "obj-23",
					"patching_rect" : [ 60.0, 182.0, 15.0, 15.0 ],
					"numinlets" : 1,
					"comment" : "Gated messages"
				}

			}
, 			{
				"box" : 				{
					"maxclass" : "newobj",
					"text" : "t 2",
					"numoutlets" : 1,
					"fontname" : "Arial",
					"outlettype" : [ "int" ],
					"id" : "obj-24",
					"fontsize" : 9.0,
					"patching_rect" : [ 195.0, 176.0, 21.0, 17.0 ],
					"numinlets" : 1
				}

			}
, 			{
				"box" : 				{
					"maxclass" : "newobj",
					"text" : "gate 2",
					"numoutlets" : 2,
					"fontname" : "Arial",
					"outlettype" : [ "", "" ],
					"id" : "obj-25",
					"fontsize" : 9.0,
					"patching_rect" : [ 60.0, 151.0, 120.0, 17.0 ],
					"numinlets" : 2
				}

			}
, 			{
				"box" : 				{
					"maxclass" : "inlet",
					"numoutlets" : 1,
					"outlettype" : [ "" ],
					"id" : "obj-26",
					"patching_rect" : [ 170.0, 41.0, 15.0, 15.0 ],
					"numinlets" : 0,
					"comment" : "Input (l, f, i, s, b)"
				}

			}
, 			{
				"box" : 				{
					"maxclass" : "inlet",
					"numoutlets" : 1,
					"outlettype" : [ "" ],
					"id" : "obj-27",
					"patching_rect" : [ 26.0, 73.0, 15.0, 15.0 ],
					"numinlets" : 0,
					"comment" : "Bang opens the gate once."
				}

			}
 ],
		"lines" : [ 			{
				"patchline" : 				{
					"source" : [ "obj-20", 0 ],
					"destination" : [ "obj-16", 0 ],
					"hidden" : 0,
					"midpoints" : [  ]
				}

			}
, 			{
				"patchline" : 				{
					"source" : [ "obj-21", 0 ],
					"destination" : [ "obj-20", 0 ],
					"hidden" : 0,
					"midpoints" : [  ]
				}

			}
, 			{
				"patchline" : 				{
					"source" : [ "obj-25", 0 ],
					"destination" : [ "obj-24", 0 ],
					"hidden" : 0,
					"midpoints" : [ 69.5, 172.0, 204.5, 172.0 ]
				}

			}
, 			{
				"patchline" : 				{
					"source" : [ "obj-25", 1 ],
					"destination" : [ "obj-22", 0 ],
					"hidden" : 0,
					"midpoints" : [  ]
				}

			}
, 			{
				"patchline" : 				{
					"source" : [ "obj-26", 0 ],
					"destination" : [ "obj-25", 1 ],
					"hidden" : 0,
					"midpoints" : [  ]
				}

			}
, 			{
				"patchline" : 				{
					"source" : [ "obj-25", 0 ],
					"destination" : [ "obj-23", 0 ],
					"hidden" : 0,
					"midpoints" : [  ]
				}

			}
, 			{
				"patchline" : 				{
					"source" : [ "obj-17", 0 ],
					"destination" : [ "obj-25", 0 ],
					"hidden" : 0,
					"midpoints" : [ 35.5, 147.0, 69.5, 147.0 ]
				}

			}
, 			{
				"patchline" : 				{
					"source" : [ "obj-24", 0 ],
					"destination" : [ "obj-25", 0 ],
					"hidden" : 0,
					"midpoints" : [ 204.5, 198.0, 225.0, 198.0, 225.0, 147.0, 69.5, 147.0 ]
				}

			}
, 			{
				"patchline" : 				{
					"source" : [ "obj-19", 0 ],
					"destination" : [ "obj-25", 0 ],
					"hidden" : 0,
					"midpoints" : [  ]
				}

			}
, 			{
				"patchline" : 				{
					"source" : [ "obj-16", 0 ],
					"destination" : [ "obj-25", 0 ],
					"hidden" : 0,
					"midpoints" : [ 247.5, 147.0, 69.5, 147.0 ]
				}

			}
, 			{
				"patchline" : 				{
					"source" : [ "obj-18", 1 ],
					"destination" : [ "obj-19", 0 ],
					"hidden" : 0,
					"midpoints" : [  ]
				}

			}
, 			{
				"patchline" : 				{
					"source" : [ "obj-18", 0 ],
					"destination" : [ "obj-17", 0 ],
					"hidden" : 0,
					"midpoints" : [  ]
				}

			}
, 			{
				"patchline" : 				{
					"source" : [ "obj-27", 0 ],
					"destination" : [ "obj-18", 0 ],
					"hidden" : 0,
					"midpoints" : [  ]
				}

			}
 ]
	}

}
